<?xml version="1.0" encoding="UTF-8"?>
<svg width="60px" height="60px" viewBox="0 0 60 60" version="1.1" xmlns="http://www.w3.org/2000/svg" xmlns:xlink="http://www.w3.org/1999/xlink">
    <!-- Generator: Sketch 42 (36781) - http://www.bohemiancoding.com/sketch -->
    <title>Facebook</title>
    <desc>Created with Sketch.</desc>
    <defs></defs>
    <g id="Landing" stroke="none" stroke-width="1" fill="none" fill-rule="evenodd">
        <g id="iPhone-7-full" transform="translate(-279.000000, -2842.000000)" fill="#313638">
            <g id="Facebook" transform="translate(279.000000, 2842.000000)">
                <g id="Layer_2">
                    <g>
                        <g id="Hand-drawn_Icon_Set">
                            <path d="M56.516129,2.54420135e-14 L3.29032258,2.54420135e-14 C1.47156331,0.0053336278 -7.82058541e-06,1.48123291 0,3.3 L0,56.516129 C5.89570336e-16,58.3386687 1.47746033,59.816129 3.3,59.816129 L32.04,59.816129 L32.04,36.5206452 L24.1935484,36.5206452 L24.1935484,27.5593548 L32.036129,27.5593548 L32.036129,20.9032258 C32.036129,13.1787097 36.7606452,8.97483871 43.6587097,8.97483871 C45.9860326,8.96699383 48.3120564,9.08587949 50.6264516,9.33096774 L50.6264516,17.4754839 L45.8903226,17.4754839 C42.1703226,17.4754839 41.4483871,19.256129 41.4483871,21.8690323 L41.2258065,27.5574194 L50.1,27.5574194 L48.9387097,36.5187097 L41.2258065,36.5187097 L41.2258065,59.8219355 L56.516129,59.8219355 C57.3933561,59.8234804 58.2350988,59.4756872 58.855393,58.855393 C59.4756872,58.2350988 59.8234804,57.3933561 59.8219355,56.516129 L59.8219355,3.29032258 C59.816598,1.46929472 58.3371619,-0.0032119904 56.516129,2.50756405e-14 L56.516129,2.54420135e-14 Z" id="White"></path>
                        </g>
                    </g>
                </g>
            </g>
        </g>
    </g>
</svg>