<?xml version="1.0" encoding="UTF-8"?>
<svg width="60px" height="60px" viewBox="0 0 60 60" version="1.1" xmlns="http://www.w3.org/2000/svg" xmlns:xlink="http://www.w3.org/1999/xlink">
    <!-- Generator: Sketch 42 (36781) - http://www.bohemiancoding.com/sketch -->
    <title>Insta</title>
    <desc>Created with Sketch.</desc>
    <defs></defs>
    <g id="Landing" stroke="none" stroke-width="1" fill="none" fill-rule="evenodd">
        <g id="iPhone-7-full" transform="translate(-35.000000, -2842.000000)" fill="#313638">
            <g id="Insta" transform="translate(35.000000, 2842.000000)">
                <g id="Layer_2">
                    <g>
                        <g id="Hand-drawn_Icon_Set">
                            <path d="M0,40.6666667 L0,19.3333333 C0.0717811712,19.1433557 0.126364062,18.9472775 0.163087248,18.7474747 C0.336241611,16.9515152 0.36442953,15.1292929 0.690604027,13.3616162 C1.61073826,8.33333333 4.35100671,4.54747475 8.87919463,2.17373737 C11.542953,0.77979798 14.4543624,0.248484848 17.4503356,0.163636364 C17.895302,0.149494949 18.338255,0.0565656566 18.7812081,0 L41.2187919,0 C41.3200882,0.0727923315 41.4331621,0.127469218 41.5530201,0.161616162 C42.9624161,0.282828283 44.3919463,0.315151515 45.795302,0.517171717 C48.9422819,0.971717172 51.795302,2.16565657 54.2033557,4.28282828 C57.6644295,7.32727273 59.2087248,11.3272727 59.6395973,15.7979798 C59.8409396,17.8525253 59.7704698,19.9313131 59.8409396,21.9979798 C59.8713208,22.2786341 59.9245181,22.5563267 60,22.8282828 L60,37.1717172 C59.9177681,37.4716978 59.8638393,37.7787741 59.8389262,38.0888889 C59.8711409,41.1414141 59.8389262,44.189899 59.1604027,47.179798 C58.0751678,52.0121212 55.3590604,55.6525253 50.9697987,57.9151515 C48.4610738,59.2080808 45.7167785,59.7777778 42.8818792,59.8363636 C42.6005268,59.8657723 42.3222823,59.919851 42.0503356,59.9979798 L17.7845638,59.9979798 C17.6519634,59.926886 17.5113688,59.8719508 17.3657718,59.8343434 C15.6724832,59.6040404 13.942953,59.5434343 12.2899329,59.1313131 C7.79597315,58.0060606 4.3409396,55.4060606 2.22281879,51.240404 C0.730872483,48.3373737 0.165100671,45.1777778 0.161073826,41.9171717 C0.134810608,41.4972398 0.081002811,41.0795002 0,40.6666667 Z M54.4167785,30.0707071 L54.5697987,30.0707071 C54.4087248,25.3959596 54.314094,20.7151515 54.0442953,16.0464646 C53.9380204,14.6364605 53.5885338,13.255681 53.0114094,11.9656566 C51.7389262,9.03838384 49.4416107,7.24040404 46.3671141,6.35959596 C43.6348993,5.57777778 40.8241611,5.62828283 38.0577181,5.58787879 C31.6147651,5.49292929 25.1718121,5.62222222 18.7288591,5.72727273 C17.2275359,5.74388254 15.7318391,5.91446651 14.2651007,6.23636364 C10.0671141,7.18181818 7.39127517,9.74343434 6.29798658,13.9717172 C5.5147651,17.0020202 5.62751678,20.0969697 5.57114094,23.1555556 C5.45838926,29.2040404 5.6033557,35.2565657 5.70805369,41.3070707 C5.73227894,42.8127434 5.90084092,44.3125841 6.2114094,45.7858586 C7.04697987,49.7171717 9.35033557,52.430303 13.214094,53.6969697 C15.666443,54.5050505 18.2355705,54.5414141 20.7604027,54.5575758 C27.6765101,54.6060606 34.5946309,54.5090909 41.5127517,54.4060606 C43.0136463,54.4026218 44.5094742,54.2311912 45.9724832,53.8949495 C49.6348993,52.9959596 52.1758389,50.7919192 53.4422819,47.1292929 C54.247651,44.8 54.2919463,42.3878788 54.3845638,39.9959596 C54.509396,36.6929293 54.4167785,33.379798 54.4167785,30.0707071 L54.4167785,30.0707071 Z" id="Shape"></path>
                            <path d="M45.4308725,30.0909091 C45.585906,38.5474747 38.466443,45.9515152 29.3597315,45.5717172 C21.3060403,45.2363636 14.5409396,38.9050505 14.5550336,30.0707071 C14.5711409,21.430303 21.1671141,14.4626263 30.366443,14.579798 C38.7861029,14.7105247 45.5183031,21.6423442 45.4308725,30.0909091 Z M30.0583893,20.2181818 C24.5637584,20.0949495 20.3637584,24.6464646 20.1624161,29.4686869 C19.8966443,35.830303 24.7812081,40.0969697 30.0624161,40.0121212 C35.6436242,39.9212121 39.8234899,35.8 39.9080537,30.0646465 C39.9845638,24.7131313 35.3758389,20.0808081 30.0583893,20.2181818 L30.0583893,20.2181818 Z" id="Shape"></path>
                            <path d="M49.5885906,14.1272727 C49.8825503,15.8747475 47.8087248,17.8383838 45.8758389,17.7636364 C43.87407,17.7196126 42.2759128,16.075649 42.2818792,14.0666667 C42.2697987,11.979798 43.8543624,10.420202 45.9362416,10.369697 C48.1208054,10.3191919 49.7979866,12.2060606 49.5885906,14.1272727 Z" id="Shape"></path>
                        </g>
                    </g>
                </g>
            </g>
        </g>
    </g>
</svg>