<?xml version="1.0" encoding="UTF-8"?>
<svg width="60px" height="49px" viewBox="0 0 60 49" version="1.1" xmlns="http://www.w3.org/2000/svg" xmlns:xlink="http://www.w3.org/1999/xlink">
    <!-- Generator: Sketch 42 (36781) - http://www.bohemiancoding.com/sketch -->
    <title>Twitter</title>
    <desc>Created with Sketch.</desc>
    <defs></defs>
    <g id="Landing" stroke="none" stroke-width="1" fill="none" fill-rule="evenodd">
        <g id="iPhone-7-full" transform="translate(-157.000000, -2848.000000)" fill="#313638">
            <g id="Twitter" transform="translate(157.000000, 2848.000000)">
                <g id="Layer_2">
                    <g>
                        <g id="Hand-drawn_Icon_Set">
                            <g id="Logo_FIXED">
                                <path d="M18.807619,48.6741245 C41.4019048,48.6741245 53.7657143,30.0144455 53.7657143,13.8605545 C53.7657143,13.3351167 53.7657143,12.8115759 53.7409524,12.2861381 C56.147527,10.5498396 58.2243919,8.40062825 59.8742857,5.9391537 C57.6273465,6.92701416 55.2460083,7.57837576 52.807619,7.87208171 C55.3771245,6.34117354 57.301343,3.9335434 58.2228571,1.09640078 C55.8095537,2.52191068 53.1677784,3.52291836 50.4133333,4.05554475 C46.9635585,0.392618349 41.6169497,-0.799854352 36.927896,1.04784093 C32.2388424,2.89553622 29.159083,7.40837206 29.16,12.4303016 C29.1664955,13.3693175 29.2711874,14.3051058 29.472381,15.2225195 C19.5888641,14.7303373 10.3801597,10.0815847 4.13904762,2.43370623 C0.893371115,8.03309425 2.56143091,15.1794982 7.95428571,18.7791829 C6.00699689,18.7111738 4.10305453,18.1880973 2.39619048,17.2521887 L2.39619048,17.4191148 C2.4017576,23.2404109 6.51666763,28.255382 12.2438095,29.4207198 C10.4387877,29.908366 8.54616719,29.9816564 6.70857143,29.6350681 C8.31568885,34.6193474 12.9289462,38.0331509 18.1847619,38.1274319 C13.8334754,41.5344554 8.45706768,43.3833281 2.92190476,43.3761187 C1.94544901,43.3812484 0.969611888,43.3261331 0,43.2110895 C5.61798092,46.7805644 12.1436215,48.6760623 18.807619,48.6741245" id="Shape"></path>
                            </g>
                        </g>
                    </g>
                </g>
            </g>
        </g>
    </g>
</svg>